<?xml version="1.0" encoding="utf-8"?>
<svg xmlns="http://www.w3.org/2000/svg" width="1200" height="360" viewBox="0 0 1200 360" role="img" aria-labelledby="title">
  <title id="title">Smart Student Monitoring System - dark logo</title>

  <rect width="100%" height="100%" rx="20" fill="#0b1220"/>
  <g transform="translate(90,50)">
    <rect x="0" y="0" width="220" height="260" rx="28" fill="#0F1724"/>
    <rect x="6" y="6" width="208" height="248" rx="22" fill="#0b1220"/>

    <g transform="translate(110,120)" fill="#E6F6F4">
      <circle cx="0" cy="-36" r="28"/>
      <path d="M-52,48 C-52,12 -12,12 0,12 12,12 52,12 52,48 L-52,48 Z" />
    </g>

    <g transform="translate(110,58)" fill="#06b6a4">
      <polygon points="-70,0 0,-34 70,0 0,34" />
      <rect x="-8" y="0" width="16" height="36" rx="3" fill="#043B35"/>
      <circle cx="52" cy="38" r="3" fill="#fde68a" />
      <path d="M52,38 q-6,8 -2,18" stroke="#fde68a" stroke-width="2" fill="none" stroke-linecap="round"/>
    </g>

    <g transform="translate(110,18)" fill="none" stroke="#06b6a4" stroke-width="6" stroke-linecap="round" stroke-linejoin="round">
      <path d="M-46,8 A58,58 0 0,1 46,8" />
      <path d="M-30,8 A42,42 0 0,1 30,8" stroke-width="4"/>
      <path d="M-16,8 A26,26 0 0,1 16,8" stroke-width="2"/>
    </g>
  </g>

  <line x1="340" y1="60" x2="340" y2="300" stroke="#102030" stroke-width="4" stroke-linecap="round"/>

  <g transform="translate(380,80)" fill="#E6F6F4" font-family="Segoe UI, Roboto, Helvetica, Arial, sans-serif">
    <text x="0" y="64" font-size="56" font-weight="700" letter-spacing="1">SMART STUDENT</text>
    <text x="0" y="120" font-size="28" font-weight="600" fill="#9bdacf" letter-spacing="1">Monitoring System</text>
    <text x="0" y="170" font-size="16" fill="#9aa9b7" font-weight="400">Real-time attendance · Behavior insights · Secure analytics</text>
  </g>

  <g transform="translate(980,60)">
    <circle cx="0" cy="0" r="46" fill="#062b27"/>
    <circle cx="0" cy="0" r="40" fill="#064b44"/>
    <text x="-18" y="10" font-size="28" font-weight="700" fill="#E6F6F4">AI</text>
  </g>

  <defs>
    <linearGradient id="shine" x1="0" x2="1">
      <stop offset="0" stop-color="#ffffff" stop-opacity="0.06"/>
      <stop offset="1" stop-color="#ffffff" stop-opacity="0.00"/>
    </linearGradient>
  </defs>

  <rect x="0" y="0" width="1200" height="360" rx="20" fill="url(#shine)" />
</svg>
